<svg height="304" viewBox="0 0 332 304" width="332" xmlns="http://www.w3.org/2000/svg" xmlns:xlink="http://www.w3.org/1999/xlink"><filter id="a" color-interpolation-filters="sRGB" height="1.020366" width="1.018595" x="-.009297" y="-.010183"><feGaussianBlur stdDeviation="1.2474"/></filter><g transform="translate(23.999985 24)"><path d="m-24-24h332v304h-332z" fill="none"/><rect filter="url(#a)" height="294" opacity=".35" rx="20" width="322" x="-19" y="-18.50024"/><rect fill="#ffbf00" height="294" rx="20" width="322" x="-19" y="-19"/><path d="m69.560039 8.3680001q0 1.248-.928 1.8879999-.928.64-2.496.64-.896 0-1.552-.144-.64-.144-1.136-.4v-1.2799999q.512.256 1.232.48.736.208 1.488.208 1.072 0 1.552-.336.48-.352.48-.928 0-.32-.176-.576-.176-.256-.64-.512-.448-.256-1.296-.576-.832-.32-1.424-.64-.592-.32-.912-.768-.32-.448-.32-1.152 0-1.088.88-1.68.896-.592 2.336-.592.784 0 1.456.16.688.144 1.28.416l-.48 1.12q-.544-.224-1.136-.384-.592-.16-1.216-.16-.864 0-1.328.288-.448.272-.448.752 0 .352.208.608.208.24.688.48.496.224 1.312.544.816.304 1.392.624.576.32.88.784.304.448.304 1.136zm2.800001-9.424q.32 0 .56.22399996.256.208.256.672 0 .448-.256.672-.24.224-.56.224-.352 0-.592-.224-.24-.224-.24-.672 0-.464.24-.672.24-.22399996.592-.22399996zm.688 3.216v8.5759999h-1.408v-8.5759999zm12.127991-.16q1.456 0 2.176.752.72.736.72 2.4v5.5839999h-1.392v-5.5199999q0-2.032-1.744-2.032-1.248 0-1.792.72-.528.72-.528 2.096v4.7359999h-1.392v-5.5199999q0-2.032-1.76-2.032-1.296 0-1.792.8-.496.8-.496 2.304v4.4479999h-1.408v-8.5759999h1.136l.208 1.168h.08q.4-.672 1.072-.992.688-.336 1.456-.336 2.016 0 2.624 1.44h.08q.432-.736 1.168-1.088.752-.352 1.584-.352zm9.631991 0q1.584 0 2.544 1.104.976 1.104.976 3.328 0 2.192-.976 3.328-.96 1.1359999-2.56 1.1359999-.992 0-1.648-.368-.64-.384-1.008-.8799999h-.096q.032.272.064.6879999.032.416.032.72v3.52h-1.408v-12.4159999h1.152l.192 1.168h.064q.384-.56 1.008-.944.624-.384 1.664-.384zm-.256 1.184q-1.312 0-1.856.736-.528.736-.56 2.24v.272q0 1.584.512 2.448.528.848 1.936.848.784 0 1.28-.432.512-.432.752-1.168.256-.752.256-1.712 0-1.472-.576-2.352-.56-.88-1.744-.88zm10.335998 7.5519999h-1.376v-7.9839999q0-.688.016-1.104.016-.416.048-.86400004-.256.25600004-.464.43200004-.208.176-.528.448l-1.216.992-.736-.944 3.088-2.40000004h1.168zm8.14401-8.7359999q1.104 0 1.888.48.8.48 1.216 1.36.432.864.432 2.032v.848h-5.872q.032 1.456.736 2.224.72.752 2 .752.816 0 1.44-.144.64-.16 1.312-.448v1.2319999q-.656.288-1.296.416-.64.144-1.52.144-1.216 0-2.16-.496-.928-.4959999-1.456-1.4719999-.512-.992-.512-2.416 0-1.408.464-2.416.48-1.008 1.328-1.552.864-.544 2-.544zm-.016 1.152q-1.008 0-1.6.656-.576.64-.688 1.792h4.368q-.016-1.088-.512-1.76-.496-.688-1.568-.688zm5.00798 3.92v-1.248h3.872v1.248zm9.12001-5.056q1.568 0 2.32.688.752.688.752 2.192v5.8399999h-1.024l-.272-1.2159999h-.064q-.56.7039999-1.184 1.0399999-.608.336-1.696.336-1.168 0-1.936-.608-.768-.6239999-.768-1.9359999 0-1.28 1.008-1.968 1.008-.704 3.104-.768l1.456-.048v-.512q0-1.072-.464-1.488-.464-.416-1.312-.416-.672 0-1.28.208-.608.192-1.136.448l-.432-1.056q.56-.304 1.328-.512.768-.224 1.6-.224zm.416 4.576q-1.6.064-2.224.512-.608.448-.608 1.264 0 .72.432 1.056.448.336 1.136.336 1.088 0 1.808-.592.72-.608.72-1.856v-.768zm14.72001-4.592q1.456 0 2.176.752.72.736.72 2.4v5.5839999h-1.392v-5.5199999q0-2.032-1.744-2.032-1.248 0-1.792.72-.528.72-.528 2.096v4.7359999h-1.392v-5.5199999q0-2.032-1.76-2.032-1.296 0-1.792.8-.496.8-.496 2.304v4.4479999h-1.408v-8.5759999h1.136l.208 1.168h.08q.4-.672 1.072-.992.688-.336 1.456-.336 2.016 0 2.624 1.44h.08q.432-.736 1.168-1.088.752-.352 1.584-.352zm6.96-.464q0 .544-.032 1.024-.016.464-.048.736h.08q.368-.544 1.008-.912.64-.368 1.648-.368 1.6 0 2.56 1.12.976 1.104.976 3.312 0 2.208-.976 3.328-.976 1.1199999-2.56 1.1199999-1.008 0-1.648-.368-.64-.368-1.008-.8799999h-.112l-.288 1.0879999h-1.008v-12.1599999h1.408zm2.416 1.648q-1.36 0-1.888.784-.528.784-.528 2.432v.064q0 1.584.512 2.432.528.832 1.936.832 1.152 0 1.712-.848.576-.848.576-2.448 0-3.248-2.32-3.248zm9.32799-1.184q1.104 0 1.888.48.8.48 1.216 1.36.432.864.432 2.032v.848h-5.872q.032 1.456.736 2.224.72.752 2 .752.816 0 1.44-.144.64-.16 1.312-.448v1.2319999q-.656.288-1.296.416-.64.144-1.52.144-1.216 0-2.16-.496-.928-.4959999-1.456-1.4719999-.512-.992-.512-2.416 0-1.408.464-2.416.48-1.008 1.328-1.552.864-.544 2-.544zm-.016 1.152q-1.008 0-1.6.656-.576.64-.688 1.792h4.368q-.016-1.088-.512-1.76-.496-.688-1.568-.688zm9.72799-1.152q.24 0 .512.032.288.016.496.064l-.176 1.296q-.208-.048-.464-.08-.24-.032-.464-.032-.656 0-1.232.368-.576.352-.928 1.008-.336.64-.336 1.504v4.5759999h-1.408v-8.5759999h1.152l.16 1.568h.064q.416-.704 1.072-1.216.656-.512 1.552-.512zm1.888 5.072v-1.248h3.872v1.248zm10.00001-5.072q1.536 0 2.32.752.784.736.784 2.4v5.5839999h-1.392v-5.4879999q0-2.064-1.92-2.064-1.424 0-1.968.8-.544.8-.544 2.304v4.4479999h-1.408v-8.5759999h1.136l.208 1.168h.08q.416-.672 1.152-.992.736-.336 1.552-.336zm9.072 0q1.104 0 1.888.48.8.48 1.216 1.36.432.864.432 2.032v.848h-5.872q.032 1.456.736 2.224.72.752 2 .752.816 0 1.44-.144.64-.16 1.312-.448v1.2319999q-.656.288-1.296.416-.64.144-1.52.144-1.216 0-2.16-.496-.928-.4959999-1.456-1.4719999-.512-.992-.512-2.416 0-1.408.464-2.416.48-1.008 1.328-1.552.864-.544 2-.544zm-.016 1.152q-1.008 0-1.6.656-.576.64-.688 1.792h4.368q-.016-1.088-.512-1.76-.496-.688-1.568-.688zm9.72799-1.152q.24 0 .512.032.288.016.496.064l-.176 1.296q-.208-.048-.464-.08-.24-.032-.464-.032-.656 0-1.232.368-.576.352-.928 1.008-.336.64-.336 1.504v4.5759999h-1.408v-8.5759999h1.152l.16 1.568h.064q.416-.704 1.072-1.216.656-.512 1.552-.512zm9.74399 4.432q0 2.128-1.088 3.296-1.072 1.1679999-2.912 1.1679999-1.136 0-2.032-.512-.88-.5279999-1.392-1.5199999-.512-1.008-.512-2.432 0-2.128 1.072-3.28 1.072-1.152 2.912-1.152 1.168 0 2.048.528.896.512 1.392 1.504.512.976.512 2.4zm-6.48 0q0 1.52.592 2.416.608.88 1.92.88 1.296 0 1.904-.88.608-.896.608-2.416 0-1.52-.608-2.384-.608-.864-1.92-.864-1.312 0-1.904.864-.592.864-.592 2.384zm12.83199-4.432q1.536 0 2.32.752.784.736.784 2.4v5.5839999h-1.392v-5.4879999q0-2.064-1.92-2.064-1.424 0-1.968.8-.544.8-.544 2.304v4.4479999h-1.408v-8.5759999h1.136l.208 1.168h.08q.416-.672 1.152-.992.736-.336 1.552-.336z" fill="#333"/></g><g opacity=".35" transform="translate(3.999985 32)"><use height="100%" stroke="#000" transform="translate(27.92265 -.07735)" width="100%" xlink:href="#e"/><path d="m112 85c-1 1-.5 2 0 2.5l1 .5 4 4v1l-4 4-1 .5c-.5.5-1 1.5 0 2.5s2 .5 2.5 0l.5-1 4-4h3l4 4 .5 1c.5.5 1.5 1 2.5 0s.5-2 0-2.5l-1-.5-4-4v-1l4-4 1-.5c.5-.5 1-1.5 0-2.5s-2-.5-2.5 0l-.5 1-4 4h-3l-4-4-.5-1c-.5-.5-1.5-1-2.5 0z" display="block" stroke="#000" stroke-linecap="round" stroke-linejoin="round" stroke-miterlimit="4.6736"/><use height="100%" stroke="#000" stroke-miterlimit="4.6736" transform="translate(112)" width="100%" xlink:href="#d"/><use height="100%" stroke="#000" stroke-miterlimit="4.6736" transform="translate(84)" width="100%" xlink:href="#d"/><use height="100%" stroke="#000" stroke-miterlimit="4.6736" transform="translate(56)" width="100%" xlink:href="#d"/><use height="100%" stroke="#000" stroke-miterlimit="4.6736" transform="translate(28)" width="100%" xlink:href="#d"/><path d="m36 89c-3 3-5 3-8.5 4.5v9h9c1.5-3.5 1.5-5.5 4.5-8.5.5-.5.5-1.5 0-2l-3-3c-.5-.5-1.5-.5-2 0z" stroke="#000" stroke-linecap="round" stroke-linejoin="round" stroke-miterlimit="4.6736"/><path id="b" d="m36 39.5h3.5l-12-12v17l3.5-3.5 1.5 3.5c.75 2 3.75.75 3-1l-1.5-4z" stroke="#000" stroke-linecap="round" stroke-linejoin="round" stroke-miterlimit="4.6736"/><use height="100%" stroke="#000" stroke-miterlimit="4.6736" transform="matrix(-1 0 0 1 130 0)" width="100%" xlink:href="#b"/><path d="m200 88c-1 1-.5 2.5 0 3l2.5 2.5-2.5 2.5c-.5.5-1 2 0 3s2.5.5 3 0l2.5-2.5 2.5 2.5c.5.5 2 1 3 0s.5-2.5 0-3l-2.5-2.5 2.5-2.5c.5-.5 1-2 0-3s-2.5-.5-3 0l-2.5 2.5-2.5-2.5c-.5-.5-2-1-3 0z" display="block" stroke="#000" stroke-linecap="round" stroke-linejoin="round" stroke-miterlimit="4.6736"/><path id="c" d="m113 43 2-2 1.5 3.5c.7 2 3.7.75 3-1v-4h4l-12-12v17z" stroke="#000" stroke-linecap="round" stroke-linejoin="round" stroke-miterlimit="4.6736"/><use height="100%" stroke="#000" stroke-miterlimit="4.6736" transform="translate(28)" width="100%" xlink:href="#c"/><use height="100%" stroke="#000" stroke-miterlimit="4.6736" transform="translate(56)" width="100%" xlink:href="#c"/><use height="100%" stroke="#000" stroke-miterlimit="4.6736" transform="translate(84)" width="100%" xlink:href="#c"/><use height="100%" stroke="#000" stroke-miterlimit="4.6736" transform="translate(112)" width="100%" xlink:href="#c"/><use height="100%" stroke="#000" stroke-miterlimit="4.6736" transform="translate(140)" width="100%" xlink:href="#c"/><path d="m29.5 65v5.5c0 1 1 2 2 2h11c1 0 2-1 2-2v-6.5c0-2-3-2-3 0v1.5-3.48c0-2.02-3-2.02-3 0v2.48-3.5c0-2-3-2-3 0v3.52-7.52c0-2-3-2-3 0v10.5-2.5c0-2-3-2-3 0z" display="block" stroke="#000" stroke-linecap="round" stroke-linejoin="round" stroke-miterlimit="4.6736"/><path d="m85.5 65v5.5c0 1 1 2 2 2h11c1 0 2-1 2-2v-6.5c0-2-3-2-3 0v1.5-3.5c0-2-3-2-3 0v2.5-3.5c0-2-3-2-3 0v3.5-2.5c0-2-3-2-3 0v5.5-2.5c0-2-3-2-3 0z" display="block" stroke="#000" stroke-linecap="round" stroke-linejoin="round" stroke-miterlimit="4.6736"/><path id="d" d="m112.5 61v5.5c0 1 1 2 2 2h11c1 0 2-1 2-2v-6.5c0-2-3-2-3 0v.5-2.5c0-2-3-2-3 0v2.5-3.5c0-2-3-2-3 0v3.5-2.5c0-2-3-2-3 0v5.5-2.5c0-2-3-2-3 0z" display="block" stroke="#000" stroke-linecap="round" stroke-linejoin="round" stroke-miterlimit="4.6736"/><path d="m57.5 63v7.5c0 1 1 2 2 2h11c1 0 2-1 2-2v-9.5c0-2-3-2-3 0v4.5-6.5c0-2-3-2-3 0v5.5-6.5c0-2-3-2-3 0v6.5-5.5c0-2-3-2-3 0v8.5-4.5c0-2-3-2-3 0z" display="block" stroke="#000" stroke-linecap="round" stroke-linejoin="round" stroke-miterlimit="4.6736"/><circle cx="260.5" cy="64.5" r="7.5" stroke="#000" stroke-linecap="round" stroke-linejoin="round" stroke-miterlimit="4.6736" stroke-width="2.00002"/><path d="m66.5 88.5-11 11v3h3l11-11c.5-.5 1-2 0-3s-2.5-.5-3 0z" display="block" stroke="#000" stroke-linecap="round" stroke-linejoin="round" stroke-miterlimit="4.6736"/><path d="m95 88-3.5 3.5-1.5-1.5-2 2 1.5 1.5-6 6.16v2.84h3l6-6 1.5 1.5 2-2-1.5-1.5 3.5-3.5c.5-.5 1-2 0-3s-2.5-.5-3 0z" stroke="#000" stroke-linecap="round" stroke-linejoin="round" stroke-miterlimit="4.6736"/><g id="e" enable-background="new" stroke="#000" stroke-miterlimit="4.6736" transform="translate(-189 -257)"><path d="m230 385-4.5-4.5 3-3 4.5 4.5c.5.5 1 2 0 3s-2.5.5-3 0z" display="block" stroke="#000" stroke-linecap="round" stroke-linejoin="round"/><circle cx="223.5" cy="375.5" r="7" stroke="#000" stroke-linecap="round" stroke-linejoin="round"/></g><path d="m146.5 91.5v3c0 .5.5 1 1 1h3c.5 0 1-.5 1-1v-3c0-.5-.5-1-1-1h-3c-.5 0-1 .5-1 1z" stroke="#000" stroke-linecap="round" stroke-linejoin="round" stroke-miterlimit="4.6736"/><path d="m170.5 91.5v3c0 .5.5 1 1 1h3v3c0 .48.5 1 1 1h3c.5 0 1-.5 1-1v-3h3c.5 0 1-.5 1-1v-3c0-.5-.5-1-1-1h-3v-3c0-.5-.5-1-1-1h-3c-.5 0-1 .5-1 1v3h-3c-.5 0-1 .5-1 1z" display="block" stroke="#000" stroke-linecap="round" stroke-linejoin="round" stroke-miterlimit="4.6736"/><path id="f" d="m287.5 28.5 1-1h1c1.5 0 1.5 2 0 2h-1v12h1c1.5 0 1.5 2 0 2h-1l-1-1-1 1h-1c-1.5 0-1.5-2 0-2h1v-12h-1c-1.5 0-1.5-2 0-2h1z" stroke="#000" stroke-linecap="round" stroke-linejoin="round" stroke-miterlimit="4.6736"/><use height="100%" stroke="#000" stroke-miterlimit="4.6736" transform="matrix(0 1 -1 0 324 -223)" width="100%" xlink:href="#f"/><path d="m278.5 84v17c0 .7.8 1.5 1.5 1.5h17c.8 0 1.5-.8 1.5-1.5v-17c0-.75-.7-1.5-1.5-1.5h-17c-.7 0-1.5.75-1.5 1.5zm3 1.5h6v1c0 1.5 2 1.5 2 0v-1h6v6h-1c-1.5 0-1.5 2 0 2h1v6.02h-6v-1c0-1.52-2-1.52-2 0v1h-6v-6.02h1c1.5 0 1.5-2 0-2h-1z" stroke="#000" stroke-linecap="round" stroke-linejoin="round" stroke-miterlimit="4.6736"/><path d="m259.5 84v4c0 2 3 2 3 0v-4c0-2-3-2-3 0zm-6.5 6.5c-2 0-2 3 0 3h4c2 0 2-3 0-3zm12 0c-2 0-2 3 0 3h4c2 0 2-3 0-3zm-5.5 5.5v4c0 2 3 2 3 0v-4c0-2-3-2-3 0z" stroke="#000" stroke-linecap="round" stroke-linejoin="round" stroke-miterlimit="4.6736"/><circle cx="36.5" cy="148.5" r="3" stroke="#000" stroke-linecap="round" stroke-linejoin="round" stroke-miterlimit="4.6736"/><path d="m41.5 143.5-5-5-5 5zm-10 0-5 5 5 5zm0 10 5 5 5-5zm10 0 5-5-5-5z" stroke="#000" stroke-linecap="round" stroke-linejoin="round" stroke-miterlimit="4.6736"/><path d="m64.5 138.5-5 5h3v3h-3v-3l-5 5 5 5v-3h3v3h-3l5 5 5-5h-3v-3h3v3l5-5-5-5v3h-3v-3h3z" display="block" stroke="#000" stroke-linecap="round" stroke-linejoin="round" stroke-miterlimit="4.6736"/><path id="g" d="m94.5 126.5v-8h5l-7-7-7 7h5v8c0 1.5 1 2 2 2s2-.5 2-2z" stroke="#000" stroke-linecap="round" stroke-linejoin="round" stroke-miterlimit="4.6736"/><use height="100%" stroke="#000" stroke-miterlimit="4.6736" transform="matrix(0 1 -1 0 242 28)" width="100%" xlink:href="#g"/><use height="100%" stroke="#000" stroke-miterlimit="4.6736" transform="matrix(-1 0 -0 -1 241 242)" width="100%" xlink:href="#g"/><use height="100%" stroke="#000" stroke-miterlimit="4.6736" transform="matrix(0 -1 1 0 56 213)" width="100%" xlink:href="#g"/><path id="h" d="m209.5 123.5h-3v-6h4l-6-6-6 6h4v6h-4l6 6 6-6z" stroke="#000" stroke-linecap="round" stroke-linejoin="round" stroke-miterlimit="4.6736"/><use height="100%" stroke="#000" stroke-miterlimit="4.6736" transform="matrix(0 1 -1 0 353 -84)" width="100%" xlink:href="#h"/><path id="i" d="m259.5 114.5 2 2-5 5-3-3v9h9l-3-3 5-5 3 3v-9h-9z" stroke="#000" stroke-linecap="round" stroke-linejoin="round" stroke-miterlimit="4.6736"/><use height="100%" stroke="#000" stroke-miterlimit="4.6736" transform="matrix(0 1 -1 0 410 -139)" width="100%" xlink:href="#i"/><g id="j" stroke="#000" transform="translate(1 1)"><path d="m89.5 148.5v6c0 1.5 1 2 2 2s2-.5 2-2v-6h5l-7-7-7 7z" stroke="#000" stroke-linecap="round" stroke-linejoin="round" stroke-miterlimit="4.6736"/><path d="m98 141.5c2 0 2-3 0-3h-13c-2 0-2 3 0 3z" stroke="#000" stroke-linecap="round" stroke-linejoin="round" stroke-miterlimit="4.6736"/></g><g id="k" stroke="#000" transform="translate(1 1)"><path d="m201 148-4 4c-.5.5-1 2 0 3s2.5.5 3 0l4-4 3.5 3.5v-10h-10z" stroke="#000" stroke-linecap="round" stroke-linejoin="round" stroke-miterlimit="4.6736"/><path d="m200 138.5c-2 0-2 3 0 3h10.5v10.5c0 2 3 2 3 0v-12c0-.7-.7-1.5-1.5-1.5z" stroke="#000" stroke-linecap="round" stroke-linejoin="round" stroke-miterlimit="4.6736"/></g><path id="l" d="m91.5 170.5h-5.5c-2 0-2-3 0-3h14c2 0 2 3 0 3h-5.5v10.5c0 2-3 2-3 0z" stroke="#000" stroke-linecap="round" stroke-linejoin="round" stroke-miterlimit="4.6736"/><use height="100%" stroke="#000" stroke-miterlimit="4.6736" transform="matrix(0 1 -1 0 297 84)" width="100%" xlink:href="#l"/><use height="100%" stroke="#000" stroke-miterlimit="4.6736" transform="matrix(-1 0 -0 -1 242 353)" width="100%" xlink:href="#l"/><use height="100%" stroke="#000" stroke-miterlimit="4.6736" transform="matrix(0 -1 1 0 0 270)" width="100%" xlink:href="#l"/><path id="m" d="m214.5 169c0-.7-.8-1.5-1.5-1.5h-12c-2 0-2 3 0 3h10.5v10.5c0 2 3 2 3 0z" stroke="#000" stroke-linecap="round" stroke-linejoin="round" stroke-miterlimit="4.6736"/><use height="100%" stroke="#000" stroke-miterlimit="4.6736" transform="matrix(0 1 -1 0 410 -28)" width="100%" xlink:href="#m"/><use height="100%" stroke="#000" stroke-miterlimit="4.6736" transform="matrix(-1 0 -0 -1 466 354)" width="100%" xlink:href="#m"/><use height="100%" stroke="#000" stroke-miterlimit="4.6736" transform="matrix(0 -1 1 0 112 382)" width="100%" xlink:href="#m"/><path d="m231.5 91.5h-5.5c-2 0-2 3 0 3h5.5v5.5c0 2 3 2 3 0v-5.5h5.5c2 0 2-3 0-3h-5.5v-5.5c0-2-3-2-3 0z" stroke="#000" stroke-linecap="round" stroke-linejoin="round" stroke-miterlimit="4.6736"/><g id="n" enable-background="new" stroke="#000" stroke-miterlimit="4.6736"><circle cx="152.5" cy="40.5" r="6" stroke="#000" stroke-linecap="round" stroke-linejoin="round"/></g><g id="o" enable-background="new" stroke="#000" stroke-miterlimit="4.6736"><circle cx="180.5" cy="40.5" r="6" stroke="#000" stroke-linecap="round" stroke-linejoin="round"/></g><g id="p" enable-background="new" stroke="#000" stroke-miterlimit="4.6736"><circle cx="236.5" cy="40.5" r="5.5" stroke="#000" stroke-linecap="round" stroke-linejoin="round" stroke-width="2"/></g><circle cx="264.5" cy="40.5" r="6" stroke="#000" stroke-linecap="round" stroke-linejoin="round" stroke-width=".99998"/><g id="q" enable-background="new" stroke="#000" stroke-miterlimit="4.6736"><circle cx="124.5" cy="40.5" r="6" stroke="#000" stroke-linecap="round" stroke-linejoin="round"/></g><use height="100%" stroke="#000" stroke-miterlimit="4.6736" transform="translate(0 28)" width="100%" xlink:href="#n"/><use height="100%" stroke="#000" stroke-miterlimit="4.6736" transform="translate(0 28)" width="100%" xlink:href="#o"/><use height="100%" stroke="#000" stroke-miterlimit="4.6736" transform="translate(0 28)" width="100%" xlink:href="#p"/><path d="m63.5 45c0 2 3 2 3 0v-3.5l5 2-6.5-16-6.5 16 5-2z" stroke="#000" stroke-linecap="round" stroke-linejoin="round" stroke-miterlimit="4.6736"/><path d="m120.5 85.5c-3.5 0-6 2.5-6 6v4.5c0 1.5 1 2.5 2.5 2.5h.5v1c0 .5.5 1 1 1h4c.5 0 1-.5 1-1v-1h.5c1.5 0 2.5-1 2.5-2.5v-4.5c0-3.5-2.5-6-6-6z" stroke="#000" stroke-linecap="round" stroke-linejoin="round" stroke-miterlimit="4.6736"/><g id="r" stroke="#000"><circle cx="208.5" cy="40.5" r="6" stroke="#000" stroke-linecap="round" stroke-linejoin="round" stroke-miterlimit="4.6736"/></g><use height="100%" stroke="#000" transform="translate(0 28)" width="100%" xlink:href="#r"/><g id="s" stroke="#000"><g stroke="#000" transform="translate(1 1)"><path d="m28 210 2-2 1.5 3.5c.75 2 3.75.75 3-1v-4h4l-12-12v17z" stroke="#000" stroke-linecap="round" stroke-linejoin="round" stroke-miterlimit="4.6736"/><circle cx="39.5" cy="207.5" r="6" stroke="#000" stroke-linecap="round" stroke-linejoin="round" stroke-miterlimit="4.6736" stroke-width="1.00008"/></g></g><use height="100%" stroke="#000" transform="translate(28)" width="100%" xlink:href="#s"/><use height="100%" stroke="#000" transform="translate(56)" width="100%" xlink:href="#s"/><use height="100%" stroke="#000" transform="translate(84)" width="100%" xlink:href="#s"/><use height="100%" stroke="#000" transform="translate(112)" width="100%" xlink:href="#s"/><use height="100%" stroke="#000" transform="translate(140)" width="100%" xlink:href="#s"/><use height="100%" stroke="#000" transform="translate(168)" width="100%" xlink:href="#s"/><use height="100%" stroke="#000" transform="translate(196)" width="100%" xlink:href="#s"/><use height="100%" stroke="#000" transform="translate(224)" width="100%" xlink:href="#s"/><use height="100%" stroke="#000" transform="translate(252)" width="100%" xlink:href="#s"/><g id="t" stroke="#000"><circle cx="36.5" cy="232.5" r="8" stroke="#000" stroke-linecap="round" stroke-linejoin="round" stroke-miterlimit="4.6736"/></g><use height="100%" stroke="#000" transform="translate(28)" width="100%" xlink:href="#t"/><use height="100%" stroke="#000" transform="translate(56)" width="100%" xlink:href="#t"/><use height="100%" stroke="#000" transform="translate(84)" width="100%" xlink:href="#t"/><use height="100%" stroke="#000" transform="translate(112)" width="100%" xlink:href="#t"/><use height="100%" stroke="#000" transform="translate(140)" width="100%" xlink:href="#t"/><use height="100%" stroke="#000" transform="translate(168)" width="100%" xlink:href="#t"/><use height="100%" stroke="#000" transform="translate(196)" width="100%" xlink:href="#t"/><use height="100%" stroke="#000" transform="translate(224)" width="100%" xlink:href="#t"/><use height="100%" stroke="#000" transform="translate(252)" width="100%" xlink:href="#t"/><g id="u" stroke="#000"><circle cx="40.5" cy="208.5" opacity="0" r="14" stroke="#000" stroke-linecap="round" stroke-linejoin="round" stroke-miterlimit="4.3368"/></g><g id="v" stroke="#000"><circle cx="36.5" cy="232.5" opacity="0" r="14" stroke="#000" stroke-linecap="round" stroke-linejoin="round" stroke-miterlimit="4.3368"/></g><use height="100%" stroke="#000" transform="matrix(.98768834 .15643447 -.15643447 .98768834 61.115698 -3.768577)" width="100%" xlink:href="#u"/><use height="100%" stroke="#000" transform="matrix(.95105652 .30901699 -.30901699 .95105652 122.413786 -2.310229)" width="100%" xlink:href="#u"/><use height="100%" stroke="#000" transform="matrix(.89100652 .4539905 -.4539905 .89100652 183.070078 4.338246)" width="100%" xlink:href="#u"/><use height="100%" stroke="#000" transform="matrix(.80901699 .58778525 -.58778525 .80901699 242.287874 16.0146)" width="100%" xlink:href="#u"/><use height="100%" stroke="#000" transform="matrix(.70710678 .70710678 -.70710678 .70710678 299.29044 32.428962)" width="100%" xlink:href="#u"/><use height="100%" stroke="#000" transform="matrix(.58778525 .80901699 -.80901699 .58778525 353.375321 53.181882)" width="100%" xlink:href="#u"/><use height="100%" stroke="#000" transform="matrix(.4539905 .89100652 -.89100652 .4539905 403.886939 77.756416)" width="100%" xlink:href="#u"/><use height="100%" stroke="#000" transform="matrix(.30901699 .95105652 -.95105652 .30901699 450.275554 105.548868)" width="100%" xlink:href="#u"/><use height="100%" stroke="#000" transform="matrix(.15643447 .98768834 -.98768834 .15643447 492.100341 135.884529)" width="100%" xlink:href="#u"/><use height="100%" stroke="#000" transform="matrix(.98768834 .15643447 -.15643447 .98768834 64.820879 -2.847359)" width="100%" xlink:href="#v"/><use height="100%" stroke="#000" transform="matrix(.95105652 .30901699 -.30901699 .95105652 129.63442 .100483)" width="100%" xlink:href="#v"/><use height="100%" stroke="#000" transform="matrix(.89100652 .4539905 -.4539905 .89100652 193.529876 8.770051)" width="100%" xlink:href="#v"/><use height="100%" stroke="#000" transform="matrix(.80901699 .58778525 -.58778525 .80901699 255.630788 22.949333)" width="100%" xlink:href="#v"/><use height="100%" stroke="#000" transform="matrix(.70710678 .70710678 -.70710678 .70710678 315.089429 42.286826)" width="100%" xlink:href="#v"/><use height="100%" stroke="#000" transform="matrix(.58778525 .80901699 -.80901699 .58778525 371.14287 66.311104)" width="100%" xlink:href="#v"/><use height="100%" stroke="#000" transform="matrix(.4539905 .89100652 -.89100652 .4539905 423.087058 94.424671)" width="100%" xlink:href="#v"/><use height="100%" stroke="#000" transform="matrix(.30901699 .95105652 -.95105652 .30901699 470.336978 125.936686)" width="100%" xlink:href="#v"/><use height="100%" stroke="#000" transform="matrix(.15643447 .98768834 -.98768834 .15643447 512.4306 160.080855)" width="100%" xlink:href="#v"/><use height="100%" stroke="#000" transform="matrix(0 1 -1 0 270 57)" width="100%" xlink:href="#j"/><use height="100%" stroke="#000" transform="matrix(-1 0 -0 -1 241 298)" width="100%" xlink:href="#j"/><use height="100%" stroke="#000" transform="matrix(0 -1 1 0 28 242)" width="100%" xlink:href="#j"/><use height="100%" stroke="#000" transform="matrix(0 1 -1 0 382 -56)" width="100%" xlink:href="#k"/><use height="100%" stroke="#000" transform="matrix(-1 0 -0 -1 466 298)" width="100%" xlink:href="#k"/><use height="100%" stroke="#000" transform="matrix(0 -1 1 0 140 354)" width="100%" xlink:href="#k"/><use height="100%" stroke="#000" transform="translate(0 28)" width="100%" xlink:href="#q"/><path id="w" d="m43 175.5h-4.5v-3h3l-5-5-5 5h3v3h-4.5c-2 0-2 3 0 3h4.5v3h-3l5 5 5-5h-3v-3h4.5c2 0 2-3 0-3z" stroke="#000" stroke-linecap="round" stroke-linejoin="round" stroke-miterlimit="4.6736"/><use height="100%" stroke="#000" transform="matrix(0 1 -1 0 242 140)" width="100%" xlink:href="#w"/></g><g transform="translate(3.999985 32)"><use height="100%" transform="translate(27.92265 -.07735)" width="100%" xlink:href="#z"/><path d="m111 84c-1 1-.5 2 0 2.5l1 .5 4 4v1l-4 4-1 .5c-.5.5-1 1.5 0 2.5s2 .5 2.5 0l.5-1 4-4h3l4 4 .5 1c.5.5 1.5 1 2.5 0s.5-2 0-2.5l-1-.5-4-4v-1l4-4 1-.5c.5-.5 1-1.5 0-2.5s-2-.5-2.5 0l-.5 1-4 4h-3l-4-4-.5-1c-.5-.5-1.5-1-2.5 0z" style="display:block;fill:#fafafa;stroke:#333;stroke-linecap:round;stroke-linejoin:round;stroke-miterlimit:4.6736"/><use fill="#333" height="100%" stroke="#333" stroke-miterlimit="4.6736" transform="translate(112)" width="100%" xlink:href="#y"/><use fill="#333" height="100%" stroke="#333" stroke-miterlimit="4.6736" transform="translate(84)" width="100%" xlink:href="#y"/><use fill="#333" height="100%" stroke="#333" stroke-miterlimit="4.6736" transform="translate(56)" width="100%" xlink:href="#y"/><use fill="#333" height="100%" stroke="#333" stroke-miterlimit="4.6736" transform="translate(28)" width="100%" xlink:href="#y"/><path d="m35 88c-3 3-5 3-8.5 4.5v9h9c1.5-3.5 1.5-5.5 4.5-8.5.5-.5.5-1.5 0-2l-3-3c-.5-.5-1.5-.5-2 0zm-2.5 7.5-4.5 4.5z" fill="#ffbf00" stroke="#333" stroke-linecap="round" stroke-linejoin="round" stroke-miterlimit="4.6736"/><circle cx="32.5" cy="95.5" fill="#333" r="1.5" stroke-linejoin="bevel" stroke-miterlimit="4.6736"/><path id="x" d="m35 38.5h3.5l-12-12v17l3.5-3.5 1.5 3.5c.75 2 3.75.75 3-1l-1.5-4z" fill="#ffbf00" stroke="#333" stroke-linecap="round" stroke-linejoin="round" stroke-miterlimit="4.6736"/><use fill="#ffbf00" height="100%" stroke="#333" stroke-miterlimit="4.6736" transform="matrix(-1 0 0 1 128 0)" width="100%" xlink:href="#x"/><path d="m199 87c-1 1-.5 2.5 0 3l2.5 2.5-2.5 2.5c-.5.5-1 2 0 3s2.5.5 3 0l2.5-2.5 2.5 2.5c.5.5 2 1 3 0s.5-2.5 0-3l-2.5-2.5 2.5-2.5c.5-.5 1-2 0-3s-2.5-.5-3 0l-2.5 2.5-2.5-2.5c-.5-.5-2-1-3 0z" style="display:block;fill:#ffbf00;stroke:#333;stroke-linecap:round;stroke-linejoin:round;stroke-miterlimit:4.6736"/><path d="m140 42 2-2 1.5 3.5c.7 2 3.7.75 3-1v-4h4l-12-12v17z" fill="#ffbf00" stroke="#333" stroke-linecap="round" stroke-linejoin="round" stroke-miterlimit="4.6736"/><path d="m168 42 2-2 1.5 3.5c.7 2 3.7.75 3-1v-4h4l-12-12v17z" fill="#ffbf00" stroke="#333" stroke-linecap="round" stroke-linejoin="round" stroke-miterlimit="4.6736"/><path d="m196 42 2-2 1.5 3.5c.7 2 3.7.75 3-1v-4h4l-12-12v17z" fill="#ffbf00" stroke="#333" stroke-linecap="round" stroke-linejoin="round" stroke-miterlimit="4.6736"/><path d="m224 42 2-2 1.5 3.5c.7 2 3.7.75 3-1v-4h4l-12-12v17z" fill="#ffbf00" stroke="#333" stroke-linecap="round" stroke-linejoin="round" stroke-miterlimit="4.6736"/><path d="m252 42 2-2 1.5 3.5c.7 2 3.7.75 3-1v-4h4l-12-12v17z" fill="#ffbf00" stroke="#333" stroke-linecap="round" stroke-linejoin="round" stroke-miterlimit="4.6736"/><path d="m28.5 64v5.5c0 1 1 2 2 2h11c1 0 2-1 2-2v-6.5c0-2-3-2-3 0v1.5-3.48c0-2.02-3-2.02-3 0v2.48-3.5c0-2-3-2-3 0v3.52-7.52c0-2-3-2-3 0v10.5-2.5c0-2-3-2-3 0z" style="display:block;fill:#ffbf00;stroke:#333;stroke-linecap:round;stroke-linejoin:round;stroke-miterlimit:4.6736"/><path d="m84.5 64v5.5c0 1 1 2 2 2h11c1 0 2-1 2-2v-6.5c0-2-3-2-3 0v1.5-3.5c0-2-3-2-3 0v2.5-3.5c0-2-3-2-3 0v3.5-2.5c0-2-3-2-3 0v5.5-2.5c0-2-3-2-3 0z" style="display:block;fill:#ffbf00;stroke:#333;stroke-linecap:round;stroke-linejoin:round;stroke-miterlimit:4.6736"/><path id="y" d="m111.5 60v5.5c0 1 1 2 2 2h11c1 0 2-1 2-2v-6.5c0-2-3-2-3 0v.5-2.5c0-2-3-2-3 0v2.5-3.5c0-2-3-2-3 0v3.5-2.5c0-2-3-2-3 0v5.5-2.5c0-2-3-2-3 0z" style="display:block;fill:#ffbf00;stroke:#333;stroke-linecap:round;stroke-linejoin:round;stroke-miterlimit:4.6736"/><path d="m56.5 62v7.5c0 1 1 2 2 2h11c1 0 2-1 2-2v-9.5c0-2-3-2-3 0v4.5-6.5c0-2-3-2-3 0v5.5-6.5c0-2-3-2-3 0v6.5-5.5c0-2-3-2-3 0v8.5-4.5c0-2-3-2-3 0z" style="display:block;fill:#ffbf00;stroke:#333;stroke-linecap:round;stroke-linejoin:round;stroke-miterlimit:4.6736"/><circle cx="259.5" cy="63.5" r="7.5" style="fill:#fff;stroke:#333;stroke-width:2.00002;stroke-linecap:round;stroke-linejoin:round;stroke-miterlimit:4.6736"/><circle cx="259.5" cy="63.5" r="5.999" style="fill:none;stroke:#ff0000;stroke-width:3;stroke-linecap:round;stroke-linejoin:round;stroke-miterlimit:4.6736"/><path d="m263.5 59.52-8 7.96" style="fill:none;stroke:#ff0000;stroke-width:3;stroke-linecap:round;stroke-linejoin:round;stroke-miterlimit:4.6736"/><path d="m65.5 87.5-1 1 3 3-3-3-8.5 8.5 3 3-3-3-1.5 1.5v3l1-1-1 1h3l11-11c.5-.5 1-2 0-3s-2.5-.5-3 0z" style="display:block;fill:#ffbf00;stroke:#333;stroke-linecap:round;stroke-linejoin:round;stroke-miterlimit:4.6736"/><path d="m87.5 96.5-3 3m9.5-12.5-3.5 3.5-1.5-1.5-2 2 1.5 1.5 3 3-3-3-6 6.16v2.84h3l6-6 1.5 1.5 2-2-1.5-1.5 3.5-3.5c.5-.5 1-2 0-3s-2.5-.5-3 0z" fill="#ffbf00" stroke="#333" stroke-linecap="round" stroke-linejoin="round" stroke-miterlimit="4.6736"/><g id="z" enable-background="new" stroke-miterlimit="4.6736" transform="translate(-190 -258)"><path d="m230 385-4.5-4.5 3-3 4.5 4.5c.5.5 1 2 0 3s-2.5.5-3 0z" display="block" fill="#ffbf00" stroke="#333" stroke-linecap="round" stroke-linejoin="round"/><circle cx="223.5" cy="375.5" fill="#fafafa" r="7" stroke="#333" stroke-linecap="round" stroke-linejoin="round"/></g><path d="m58.5 117.5h6" fill="none" stroke="#333" stroke-linecap="round" stroke-linejoin="round" stroke-miterlimit="4.6736"/><path d="m145.5 90.5v3c0 .5.5 1 1 1h3c.5 0 1-.5 1-1v-3c0-.5-.5-1-1-1h-3c-.5 0-1 .5-1 1z" fill="#ffbf00" stroke="#333" stroke-linecap="round" stroke-linejoin="round" stroke-miterlimit="4.6736"/><path d="m169.5 90.5v3c0 .5.5 1 1 1h3v3c0 .48.5 1 1 1h3c.5 0 1-.5 1-1v-3h3c.5 0 1-.5 1-1v-3c0-.5-.5-1-1-1h-3v-3c0-.5-.5-1-1-1h-3c-.5 0-1 .5-1 1v3h-3c-.5 0-1 .5-1 1z" style="display:block;fill:#ffbf00;stroke:#333;stroke-linecap:round;stroke-linejoin:round;stroke-miterlimit:4.6736"/><path id="A" d="m286.5 27.5 1-1h1c1.5 0 1.5 2 0 2h-1v12h1c1.5 0 1.5 2 0 2h-1l-1-1-1 1h-1c-1.5 0-1.5-2 0-2h1v-12h-1c-1.5 0-1.5-2 0-2h1z" fill="#ffbf00" stroke="#333" stroke-linecap="round" stroke-linejoin="round" stroke-miterlimit="4.6736"/><use fill="#333" height="100%" stroke="#333" stroke-miterlimit="4.6736" transform="matrix(0 1 -1 0 322 -223)" width="100%" xlink:href="#A"/><path d="m277.5 83v17c0 .7.8 1.5 1.5 1.5h17c.8 0 1.5-.8 1.5-1.5v-17c0-.75-.7-1.5-1.5-1.5h-17c-.7 0-1.5.75-1.5 1.5zm3 1.5h6v1c0 1.5 2 1.5 2 0v-1h6v6h-1c-1.5 0-1.5 2 0 2h1v6.02h-6v-1c0-1.52-2-1.52-2 0v1h-6v-6.02h1c1.5 0 1.5-2 0-2h-1z" fill="#ffbf00" stroke="#333" stroke-linecap="round" stroke-linejoin="round" stroke-miterlimit="4.6736"/><path d="m258.5 83v4c0 2 3 2 3 0v-4c0-2-3-2-3 0zm-6.5 6.5c-2 0-2 3 0 3h4c2 0 2-3 0-3zm12 0c-2 0-2 3 0 3h4c2 0 2-3 0-3zm-5.5 5.5v4c0 2 3 2 3 0v-4c0-2-3-2-3 0z" fill="#ffbf00" stroke="#333" stroke-linecap="round" stroke-linejoin="round" stroke-miterlimit="4.6736"/><circle cx="35.5" cy="147.5" fill="#ffbf00" r="3" stroke="#333" stroke-linecap="round" stroke-linejoin="round" stroke-miterlimit="4.6736"/><path d="m40.5 142.5-5-5-5 5zm-10 0-5 5 5 5zm0 10 5 5 5-5zm10 0 5-5-5-5z" fill="#ffbf00" stroke="#333" stroke-linecap="round" stroke-linejoin="round" stroke-miterlimit="4.6736"/><path d="m63.5 137.5-5 5h3v3h-3v-3l-5 5 5 5v-3h3v3h-3l5 5 5-5h-3v-3h3v3l5-5-5-5v3h-3v-3h3z" style="display:block;fill:#ffbf00;stroke:#333;stroke-linecap:round;stroke-linejoin:round;stroke-miterlimit:4.6736"/><path id="B" d="m93.5 125.5v-8h5l-7-7-7 7h5v8c0 1.5 1 2 2 2s2-.5 2-2z" fill="#ffbf00" stroke="#333" stroke-linecap="round" stroke-linejoin="round" stroke-miterlimit="4.6736"/><use fill="#333" height="100%" stroke="#333" stroke-miterlimit="4.6736" transform="matrix(0 1 -1 0 240 28)" width="100%" xlink:href="#B"/><use fill="#333" height="100%" stroke="#333" stroke-miterlimit="4.6736" transform="matrix(-1 0 -0 -1 239 240)" width="100%" xlink:href="#B"/><use fill="#333" height="100%" stroke="#333" stroke-miterlimit="4.6736" transform="matrix(0 -1 1 0 56 211)" width="100%" xlink:href="#B"/><path id="C" d="m208.5 122.5h-3v-6h4l-6-6-6 6h4v6h-4l6 6 6-6z" fill="#ffbf00" stroke="#333" stroke-linecap="round" stroke-linejoin="round" stroke-miterlimit="4.6736"/><use fill="#333" height="100%" stroke="#333" stroke-miterlimit="4.6736" transform="matrix(0 1 -1 0 351 -84)" width="100%" xlink:href="#C"/><path id="D" d="m258.5 113.5 2 2-5 5-3-3v9h9l-3-3 5-5 3 3v-9h-9z" fill="#ffbf00" stroke="#333" stroke-linecap="round" stroke-linejoin="round" stroke-miterlimit="4.6736"/><use fill="#333" height="100%" stroke="#333" stroke-miterlimit="4.6736" transform="matrix(0 1 -1 0 408 -139)" width="100%" xlink:href="#D"/><g id="E" fill="#ffbf00"><path d="m89.5 148.5v6c0 1.5 1 2 2 2s2-.5 2-2v-6h5l-7-7-7 7z" fill="#ffbf00" stroke="#333" stroke-linecap="round" stroke-linejoin="round" stroke-miterlimit="4.6736"/><path d="m98 141.5c2 0 2-3 0-3h-13c-2 0-2 3 0 3z" fill="#ffbf00" stroke="#333" stroke-linecap="round" stroke-linejoin="round" stroke-miterlimit="4.6736"/></g><g id="F" fill="#ffbf00"><path d="m201 148-4 4c-.5.5-1 2 0 3s2.5.5 3 0l4-4 3.5 3.5v-10h-10z" fill="#ffbf00" stroke="#333" stroke-linecap="round" stroke-linejoin="round" stroke-miterlimit="4.6736"/><path d="m200 138.5c-2 0-2 3 0 3h10.5v10.5c0 2 3 2 3 0v-12c0-.7-.7-1.5-1.5-1.5z" fill="#ffbf00" stroke="#333" stroke-linecap="round" stroke-linejoin="round" stroke-miterlimit="4.6736"/></g><path id="G" d="m90.5 169.5h-5.5c-2 0-2-3 0-3h14c2 0 2 3 0 3h-5.5v10.5c0 2-3 2-3 0z" fill="#ffbf00" stroke="#333" stroke-linecap="round" stroke-linejoin="round" stroke-miterlimit="4.6736"/><use fill="#333" height="100%" stroke="#333" stroke-miterlimit="4.6736" transform="matrix(0 1 -1 0 295 84)" width="100%" xlink:href="#G"/><use fill="#333" height="100%" stroke="#333" stroke-miterlimit="4.6736" transform="matrix(-1 0 -0 -1 240 351)" width="100%" xlink:href="#G"/><use fill="#333" height="100%" stroke="#333" stroke-miterlimit="4.6736" transform="matrix(0 -1 1 0 0 268)" width="100%" xlink:href="#G"/><path id="H" d="m213.5 168c0-.7-.8-1.5-1.5-1.5h-12c-2 0-2 3 0 3h10.5v10.5c0 2 3 2 3 0z" fill="#ffbf00" stroke="#333" stroke-linecap="round" stroke-linejoin="round" stroke-miterlimit="4.6736"/><use fill="#333" height="100%" stroke="#333" stroke-miterlimit="4.6736" transform="matrix(0 1 -1 0 408 -28)" width="100%" xlink:href="#H"/><use fill="#333" height="100%" stroke="#333" stroke-miterlimit="4.6736" transform="matrix(-1 0 -0 -1 464 352)" width="100%" xlink:href="#H"/><use fill="#333" height="100%" stroke="#333" stroke-miterlimit="4.6736" transform="matrix(0 -1 1 0 112 380)" width="100%" xlink:href="#H"/><path d="m230.5 90.5h-5.5c-2 0-2 3 0 3h5.5v5.5c0 2 3 2 3 0v-5.5h5.5c2 0 2-3 0-3h-5.5v-5.5c0-2-3-2-3 0z" fill="#ffbf00" stroke="#333" stroke-linecap="round" stroke-linejoin="round" stroke-miterlimit="4.6736"/><path d="m33.5 114.5v3h3-6 3v3" fill="none" stroke="#333" stroke-linecap="round" stroke-linejoin="round" stroke-miterlimit="4.6736"/><g id="I" enable-background="new" stroke-miterlimit="4.6736"><g transform="translate(-48 56)"><circle cx="199.5" cy="-16.5" fill="#61bd00" r="6" stroke="#333" stroke-linecap="round" stroke-linejoin="round"/><path d="m199.5-19.5v3h3-6 3v3" fill="none" stroke="#fff" stroke-linecap="round" stroke-linejoin="round"/></g></g><g id="J" enable-background="new" stroke-miterlimit="4.6736" transform="translate(-20 56)"><circle cx="199.5" cy="-16.5" fill="#ff77ce" r="6" stroke="#333" stroke-linecap="round" stroke-linejoin="round"/><path d="m198.5-18.5h3l-4 4 4-4v3" fill="none" stroke="#fff" stroke-linecap="round" stroke-linejoin="round"/></g><g id="K" enable-background="new" stroke-miterlimit="4.6736" transform="translate(-20 56)"><circle cx="255.5" cy="-16.5" fill="#fff" r="5.5" stroke="#333" stroke-linecap="round" stroke-linejoin="round" stroke-width="2"/><circle cx="255.5" cy="-16.5" fill="none" r="4.5" stroke="#ff0000" stroke-linecap="round" stroke-linejoin="round" stroke-width="2"/><path d="m258.5-19.5-6 6" fill="none" stroke="#ff0000" stroke-linecap="round" stroke-linejoin="round" stroke-width="2"/></g><circle cx="263.5" cy="39.5" fill="#16b0cf" r="6" stroke="#333" stroke-linecap="round" stroke-linejoin="round" stroke-width=".99998"/><path d="m261.5 41.5h4m-4-2h4m-4-2h4" fill="none" stroke="#fff" stroke-linecap="round" stroke-linejoin="round"/><use fill="#333" height="100%" stroke="#333" stroke-miterlimit="4.6736" transform="translate(0 28)" width="100%" xlink:href="#I"/><use fill="#333" height="100%" stroke="#333" stroke-miterlimit="4.6736" transform="translate(0 28)" width="100%" xlink:href="#J"/><use height="100%" stroke-miterlimit="4.6736" transform="translate(0 28)" width="100%" xlink:href="#K"/><path d="m62.5 44c0 2 3 2 3 0v-3.5l5 2-6.5-16-6.5 16 5-2z" fill="#ffbf00" stroke="#333" stroke-linecap="round" stroke-linejoin="round" stroke-miterlimit="4.6736"/><path d="m119.5 84.5c-3.5 0-6 2.5-6 6v4.5c0 1.5 1 2.5 2.5 2.5h.5v1c0 .5.5 1 1 1h1v-2 2h2v-2 2h1c.5 0 1-.5 1-1v-1h.5c1.5 0 2.5-1 2.5-2.5v-4.5c0-3.5-2.5-6-6-6z" fill="#fafafa" stroke="#333" stroke-linecap="round" stroke-linejoin="round" stroke-miterlimit="4.6736"/><circle id="L" cx="117" cy="93" fill="#333" r="2" stroke-linecap="round" stroke-linejoin="round" stroke-miterlimit="4.6736"/><g id="M"><circle cx="207.5" cy="39.5" fill="#fd892c" r="6" stroke="#333" stroke-linecap="round" stroke-linejoin="round" stroke-miterlimit="4.6736"/><path id="N" d="m206.5 36.5 1-1 1 1z" fill="none" stroke="#fff" stroke-linecap="round" stroke-linejoin="round"/><use fill="#333" height="100%" stroke="#333" transform="matrix(0 1 -1 0 247 -168)" width="100%" xlink:href="#N"/><use fill="#333" height="100%" stroke="#333" transform="matrix(-1 0 -0 -1 415 79)" width="100%" xlink:href="#N"/><use fill="#333" height="100%" stroke="#333" transform="matrix(0 -1 1 0 168 247)" width="100%" xlink:href="#N"/></g><use fill="#333" height="100%" stroke="#333" transform="translate(0 28)" width="100%" xlink:href="#M"/><g id="O"><path d="m28 210 2-2 1.5 3.5c.75 2 3.75.75 3-1v-4h4l-12-12v17z" fill="#ffbf00" stroke="#333" stroke-linecap="round" stroke-linejoin="round" stroke-miterlimit="4.6736"/><circle cx="39.5" cy="207.5" r="6" style="fill:#fafafa;stroke:#333;stroke-width:1.00008;stroke-linecap:round;stroke-linejoin:round;stroke-miterlimit:4.6736"/></g><use fill="#333" height="100%" stroke="#333" transform="translate(28)" width="100%" xlink:href="#O"/><use fill="#333" height="100%" stroke="#333" transform="translate(56)" width="100%" xlink:href="#O"/><use fill="#333" height="100%" stroke="#333" transform="translate(84)" width="100%" xlink:href="#O"/><use fill="#333" height="100%" stroke="#333" transform="translate(112)" width="100%" xlink:href="#O"/><use fill="#333" height="100%" stroke="#333" transform="translate(140)" width="100%" xlink:href="#O"/><use fill="#333" height="100%" stroke="#333" transform="translate(168)" width="100%" xlink:href="#O"/><use fill="#333" height="100%" stroke="#333" transform="translate(196)" width="100%" xlink:href="#O"/><use fill="#333" height="100%" stroke="#333" transform="translate(224)" width="100%" xlink:href="#O"/><use fill="#333" height="100%" stroke="#333" transform="translate(252)" width="100%" xlink:href="#O"/><g id="P"><circle cx="35.5" cy="231.5" fill="#fafafa" r="8" stroke="#333" stroke-linecap="round" stroke-linejoin="round" stroke-miterlimit="4.6736"/></g><use fill="#333" height="100%" stroke="#333" transform="translate(28)" width="100%" xlink:href="#P"/><use fill="#333" height="100%" stroke="#333" transform="translate(56)" width="100%" xlink:href="#P"/><use fill="#333" height="100%" stroke="#333" transform="translate(84)" width="100%" xlink:href="#P"/><use fill="#333" height="100%" stroke="#333" transform="translate(112)" width="100%" xlink:href="#P"/><use fill="#333" height="100%" stroke="#333" transform="translate(140)" width="100%" xlink:href="#P"/><use fill="#333" height="100%" stroke="#333" transform="translate(168)" width="100%" xlink:href="#P"/><use fill="#333" height="100%" stroke="#333" transform="translate(196)" width="100%" xlink:href="#P"/><use fill="#333" height="100%" stroke="#333" transform="translate(224)" width="100%" xlink:href="#P"/><use fill="#333" height="100%" stroke="#333" transform="translate(252)" width="100%" xlink:href="#P"/><g id="Q"><path d="m-36.901304 206.00107a3 3 0 0 1 .0048 2.98957" style="fill:none;stroke:#333;stroke-width:1.2;stroke-linecap:round;stroke-linejoin:round;stroke-miterlimit:4.3368" transform="scale(-1 1)"/><path d="m42.098696 206.00107a3 3 0 0 1 .0048 2.98957" style="fill:none;stroke:#333;stroke-width:1.2;stroke-linecap:round;stroke-linejoin:round;stroke-miterlimit:4.3368"/><circle cx="39.5" cy="207.5" fill-opacity=".25933" opacity="0" r="14" stroke-linecap="round" stroke-linejoin="round" stroke-miterlimit="4.3368"/></g><g id="R"><path d="m38.964928 229.50143a4 4 0 0 1 .0063 3.98609" style="fill:none;stroke:#333;stroke-width:1.20002;stroke-linecap:round;stroke-linejoin:round;stroke-miterlimit:4.3368"/><path d="m-32.035072 229.50143a4 4 0 0 1 .0063 3.98609" style="fill:none;stroke:#333;stroke-width:1.20002;stroke-linecap:round;stroke-linejoin:round;stroke-miterlimit:4.3368" transform="scale(-1 1)"/><circle cx="35.5" cy="231.5" fill-opacity=".25933" opacity="0" r="14" stroke-linecap="round" stroke-linejoin="round" stroke-miterlimit="4.3368"/></g><use height="100%" transform="matrix(.98768834 .15643447 -.15643447 .98768834 60.946952 -3.624453)" width="100%" xlink:href="#Q"/><use height="100%" transform="matrix(.95105652 .30901699 -.30901699 .95105652 122.055826 -2.050156)" width="100%" xlink:href="#Q"/><use height="100%" transform="matrix(.89100652 .4539905 -.4539905 .89100652 182.507095 4.683239)" width="100%" xlink:href="#Q"/><use height="100%" transform="matrix(.80901699 .58778525 -.58778525 .80901699 241.509105 16.411403)" width="100%" xlink:href="#Q"/><use height="100%" transform="matrix(.70710678 .70710678 -.70710678 .70710678 298.29044 32.843175)" width="100%" xlink:href="#Q"/><use height="100%" transform="matrix(.58778525 .80901699 -.80901699 .58778525 352.154089 53.578685)" width="100%" xlink:href="#Q"/><use height="100%" transform="matrix(.4539905 .89100652 -.89100652 .4539905 402.449923 78.101414)" width="100%" xlink:href="#Q"/><use height="100%" transform="matrix(.30901699 .95105652 -.95105652 .30901699 448.633514 105.808942)" width="100%" xlink:href="#Q"/><use height="100%" transform="matrix(.15643447 .98768834 -.98768834 .15643447 490.269088 136.028652)" width="100%" xlink:href="#Q"/><use height="100%" transform="matrix(.98768834 .15643447 -.15643447 .98768834 64.652133 -2.703236)" width="100%" xlink:href="#R"/><use height="100%" transform="matrix(.95105652 .30901699 -.30901699 .95105652 129.27646 .360556)" width="100%" xlink:href="#R"/><use height="100%" transform="matrix(.89100652 .4539905 -.4539905 .89100652 192.966893 9.115045)" width="100%" xlink:href="#R"/><use height="100%" transform="matrix(.80901699 .58778525 -.58778525 .80901699 254.852019 23.346136)" width="100%" xlink:href="#R"/><use height="100%" transform="matrix(.70710678 .70710678 -.70710678 .70710678 314.089429 42.70104)" width="100%" xlink:href="#R"/><use height="100%" transform="matrix(.58778525 .80901699 -.80901699 .58778525 369.921638 66.707907)" width="100%" xlink:href="#R"/><use height="100%" transform="matrix(.4539905 .89100652 -.89100652 .4539905 421.650042 94.769668)" width="100%" xlink:href="#R"/><use height="100%" transform="matrix(.30901699 .95105652 -.95105652 .30901699 468.694939 126.19676)" width="100%" xlink:href="#R"/><use height="100%" transform="matrix(.15643447 .98768834 -.98768834 .15643447 510.599346 160.224978)" width="100%" xlink:href="#R"/><use height="100%" transform="matrix(0 1 -1 0 268 57)" width="100%" xlink:href="#E"/><use height="100%" transform="matrix(-1 0 -0 -1 239 296)" width="100%" xlink:href="#E"/><use height="100%" transform="matrix(0 -1 1 0 28 240)" width="100%" xlink:href="#E"/><use height="100%" transform="matrix(0 1 -1 0 380 -56)" width="100%" xlink:href="#F"/><use height="100%" transform="matrix(-1 0 -0 -1 464 296)" width="100%" xlink:href="#F"/><use height="100%" transform="matrix(0 -1 1 0 140 352)" width="100%" xlink:href="#F"/><use height="100%" transform="translate(5)" width="100%" xlink:href="#L"/><path id="S" d="m42 174.5h-4.5v-3h3l-5-5-5 5h3v3h-4.5c-2 0-2 3 0 3h4.5v3h-3l5 5 5-5h-3v-3h4.5c2 0 2-3 0-3z" fill="#ffbf00" stroke="#333" stroke-linecap="round" stroke-linejoin="round" stroke-miterlimit="4.6736"/><use height="100%" transform="matrix(0 1 -1 0 240 140)" width="100%" xlink:href="#S"/></g><g stroke="#333"><g stroke-miterlimit="4.6736" transform="translate(3.999985 32.012858)"><path d="m112 42 2-2 1.5 3.5c.7 2 3.7.75 3-1v-4h4l-12-12v17z" fill="#ffbf00" stroke-linecap="round" stroke-linejoin="round"/><g enable-background="new" fill="#333" transform="translate(-104 56)"><path d="m233.5-16.5a6 6 0 0 1 -6 6 6 6 0 0 1 -6-6 6 6 0 0 1 6-6 6 6 0 0 1 6 6z" fill="#63abff" stroke-linecap="round" stroke-linejoin="round"/><path d="m227.50078-20.125119c-.76994.0066-1.62304.167396-2.16167.76469-.24805.290651-.43798.724595-.27798 1.09864.16581.343868.71349.343868.8793 0 .0301-.342149.21802-.631484.57921-.707077.68741-.22404 1.46679-.218312 2.13349.07226.31526.09224.42924.437633.29608.722008-.22438.494287-.75624.730769-1.141 1.079746-.50471.401867-.86061 1.038095-.79727 1.695497.0591.378235.58604.536376.84339.252786.23449-.213006.0772-.567347.26159-.808147.37451-.544091 1.03728-.79367 1.44021-1.314234.41895-.509178.61624-1.290778.25834-1.88413-.41877-.67176-1.25218-.908309-1.99802-.961546-.10506-.0071-.21037-.01049-.31567-.0105zm-.0254 6.125c-.39441.0012-.62721.52583-.36043.818046.2287.306351.76717.200518.86334-.169361.10985-.319836-.16615-.674205-.50291-.648685z" fill="#fff" stroke="none"/></g></g><g enable-background="new" fill="#333" transform="translate(-100.000015 116)"><path d="m233.5-16.5a6 6 0 0 1 -6 6 6 6 0 0 1 -6-6 6 6 0 0 1 6-6 6 6 0 0 1 6 6z" fill="#63abff" stroke-linecap="round" stroke-linejoin="round"/><path d="m227.50078-20.125119c-.76994.0066-1.62304.167396-2.16167.76469-.24805.290651-.43798.724595-.27798 1.09864.16581.343868.71349.343868.8793 0 .0301-.342149.21802-.631484.57921-.707077.68741-.22404 1.46679-.218312 2.13349.07226.31526.09224.42924.437633.29608.722008-.22438.494287-.75624.730769-1.141 1.079746-.50471.401867-.86061 1.038095-.79727 1.695497.0591.378235.58604.536376.84339.252786.23449-.213006.0772-.567347.26159-.808147.37451-.544091 1.03728-.79367 1.44021-1.314234.41895-.509178.61624-1.290778.25834-1.88413-.41877-.67176-1.25218-.908309-1.99802-.961546-.10506-.0071-.21037-.01049-.31567-.0105zm-.0254 6.125c-.39441.0012-.62721.52583-.36043.818046.2287.306351.76717.200518.86334-.169361.10985-.319836-.16615-.674205-.50291-.648685z" fill="#fff" stroke="none"/></g></g></svg>